<svg width="25" height="24" viewBox="0 0 25 24" fill="none" xmlns="http://www.w3.org/2000/svg">
<path d="M2.5 9.65349L11.5033 2.45086C12.2548 1.84963 13.3227 1.84963 14.0742 2.45086L23.0775 9.65349" stroke="#D98B79" stroke-width="1.5" stroke-linecap="round" stroke-linejoin="round"/>
<path d="M10.1934 3.531L6.07792 6.87485C5.33069 7.48197 4.95708 7.78553 4.75734 8.20515C4.55762 8.62478 4.55762 9.10617 4.55762 10.069V13.7689C4.55762 17.649 4.55762 19.5892 5.76302 20.7945C6.96843 21.9999 8.90849 21.9999 12.7886 21.9999C16.6687 21.9999 18.6089 21.9999 19.8142 20.7945C21.0196 19.5892 21.0196 17.649 21.0196 13.7689V10.069C21.0196 9.10617 21.0196 8.62478 20.8199 8.20515C20.6201 7.78553 20.2465 7.48197 19.4994 6.87485L15.3839 3.531C14.1408 2.52099 13.5192 2.01599 12.7886 2.01599C12.058 2.01599 11.4365 2.52099 10.1934 3.531Z" stroke="#D98B79" stroke-width="1.5"/>
<path d="M10.4736 16.084H15.1036" stroke="#D98B79" stroke-width="1.5" stroke-linecap="round"/>
</svg>
