<svg width="25" height="24" viewBox="0 0 25 24" fill="none" xmlns="http://www.w3.org/2000/svg">
<g clip-path="url(#clip0_49_120)">
<path fill-rule="evenodd" clip-rule="evenodd" d="M11.4285 -6.10352e-05H4.78566C3.3655 -6.10352e-05 2.21423 1.15121 2.21423 2.57137V21.4285C2.21423 22.8486 3.3655 23.9999 4.78566 23.9999H11.4285V-6.10352e-05ZM13.5714 23.9999H20.2142C21.6343 23.9999 22.7857 22.8486 22.7857 21.4285V2.57137C22.7857 1.15121 21.6343 -6.10352e-05 20.2142 -6.10352e-05H13.5714V23.9999ZM16.7857 10.0055C17.3774 10.0055 17.8571 10.4851 17.8571 11.0769V12.923C17.8571 13.5148 17.3774 13.9945 16.7857 13.9945C16.1939 13.9945 15.7142 13.5148 15.7142 12.923V11.0769C15.7142 10.4851 16.1939 10.0055 16.7857 10.0055ZM9.28566 11.0769C9.28566 10.4851 8.80597 10.0055 8.21423 10.0055C7.6225 10.0055 7.14281 10.4851 7.14281 11.0769V12.923C7.14281 13.5148 7.6225 13.9945 8.21423 13.9945C8.80597 13.9945 9.28566 13.5148 9.28566 12.923V11.0769Z" fill="#D98B79"/>
</g>
<defs>
<clipPath id="clip0_49_120">
<rect width="24" height="24" fill="white" transform="translate(0.5 -6.10352e-05)"/>
</clipPath>
</defs>
</svg>
