<svg width="25" height="24" viewBox="0 0 25 24" fill="none" xmlns="http://www.w3.org/2000/svg">
<path d="M12.5 21L11.05 19.7C9.36667 18.1833 7.975 16.875 6.875 15.775C5.775 14.675 4.9 13.6916 4.25 12.825C3.6 11.9416 3.14167 11.1333 2.875 10.4C2.625 9.66663 2.5 8.91663 2.5 8.14996C2.5 6.5833 3.025 5.27496 4.075 4.22496C5.125 3.17496 6.43333 2.64996 8 2.64996C8.86667 2.64996 9.69167 2.8333 10.475 3.19996C11.2583 3.56663 11.9333 4.0833 12.5 4.74996C13.0667 4.0833 13.7417 3.56663 14.525 3.19996C15.3083 2.8333 16.1333 2.64996 17 2.64996C18.5667 2.64996 19.875 3.17496 20.925 4.22496C21.975 5.27496 22.5 6.5833 22.5 8.14996C22.5 8.91663 22.3667 9.66663 22.1 10.4C21.85 11.1333 21.4 11.9416 20.75 12.825C20.1 13.6916 19.225 14.675 18.125 15.775C17.025 16.875 15.6333 18.1833 13.95 19.7L12.5 21ZM12.5 18.3C14.1 16.8666 15.4167 15.6416 16.45 14.625C17.4833 13.5916 18.3 12.7 18.9 11.95C19.5 11.1833 19.9167 10.5083 20.15 9.92496C20.3833 9.32497 20.5 8.7333 20.5 8.14996C20.5 7.14996 20.1667 6.31663 19.5 5.64996C18.8333 4.9833 18 4.64996 17 4.64996C16.2167 4.64996 15.4917 4.87496 14.825 5.32496C14.1583 5.7583 13.7 6.31663 13.45 6.99996H11.55C11.3 6.31663 10.8417 5.7583 10.175 5.32496C9.50833 4.87496 8.78333 4.64996 8 4.64996C7 4.64996 6.16667 4.9833 5.5 5.64996C4.83333 6.31663 4.5 7.14996 4.5 8.14996C4.5 8.7333 4.61667 9.32497 4.85 9.92496C5.08333 10.5083 5.5 11.1833 6.1 11.95C6.7 12.7 7.51667 13.5916 8.55 14.625C9.58333 15.6416 10.9 16.8666 12.5 18.3Z" fill="#D98B79"/>
</svg>
